<?xml version="1.0" encoding="UTF-8" standalone="no"?>
<!DOCTYPE svg PUBLIC "-//W3C//DTD SVG 1.1//EN"
 "http://www.w3.org/Graphics/SVG/1.1/DTD/svg11.dtd">
<!-- Generated by graphviz version 2.43.0 (0)
 -->
<!-- Title: model_graph Pages: 1 -->
<svg width="1271pt" height="421pt"
 viewBox="0.00 0.00 1271.00 421.00" xmlns="http://www.w3.org/2000/svg" xmlns:xlink="http://www.w3.org/1999/xlink">
<g id="graph0" class="graph" transform="scale(1 1) rotate(0) translate(4 417)">
<title>model_graph</title>
<polygon fill="white" stroke="transparent" points="-4,4 -4,-417 1267,-417 1267,4 -4,4"/>
<g id="clust1" class="cluster">
<title>cluster_movies</title>
<path fill="none" stroke="#698b22" d="M20,-8C20,-8 1181,-8 1181,-8 1187,-8 1193,-14 1193,-20 1193,-20 1193,-393 1193,-393 1193,-399 1187,-405 1181,-405 1181,-405 20,-405 20,-405 14,-405 8,-399 8,-393 8,-393 8,-20 8,-20 8,-14 14,-8 20,-8"/>
<text text-anchor="start" x="536" y="-389.5" font-family="Roboto" font-size="8.00"> &#160;&#160;&#160;&#160;&#160;&#160;&#160;&#160;&#160;</text>
<text text-anchor="start" x="559" y="-389.5" font-family="Roboto" font-size="10.00"> &#160;&#160;&#160;&#160;&#160;&#160;&#160;&#160;&#160;</text>
<text text-anchor="start" x="582" y="-389.5" font-family="Roboto" font-weight="bold" font-size="10.00">movies</text>
<text text-anchor="start" x="619" y="-389.5" font-family="Roboto" font-size="10.00"> &#160;&#160;&#160;&#160;&#160;&#160;&#160;&#160;&#160;</text>
<text text-anchor="start" x="642" y="-389.5" font-family="Roboto" font-size="8.00"> &#160;&#160;&#160;&#160;&#160;&#160;&#160;&#160;&#160;</text>
</g>
<!-- movies_models_Profile -->
<g id="node1" class="node">
<title>movies_models_Profile</title>
<polygon fill="white" stroke="transparent" points="1011,-284.5 1011,-359.5 1177,-359.5 1177,-284.5 1011,-284.5"/>
<polygon fill="#1b563f" stroke="transparent" points="1012,-337 1012,-358 1176,-358 1176,-337 1012,-337"/>
<text text-anchor="start" x="1057" y="-346" font-family="Roboto" font-size="8.00"> &#160;&#160;&#160;&#160;&#160;</text>
<text text-anchor="start" x="1071" y="-346" font-family="Roboto" font-weight="bold" font-size="10.00" fill="white"> &#160;&#160;&#160;&#160;&#160;Profile &#160;&#160;&#160;&#160;&#160;</text>
<text text-anchor="start" x="1014" y="-329.6" font-family="Roboto" font-size="8.00"> &#160;&#160;&#160;&#160;&#160;</text>
<text text-anchor="start" x="1028" y="-329.6" font-family="Roboto" font-weight="bold" font-size="8.00">id</text>
<text text-anchor="start" x="1036" y="-329.6" font-family="Roboto" font-size="8.00"> &#160;&#160;&#160;&#160;&#160;</text>
<text text-anchor="start" x="1070" y="-329.6" font-family="Roboto" font-size="8.00"> &#160;&#160;&#160;&#160;&#160;</text>
<text text-anchor="start" x="1084" y="-329.6" font-family="Roboto" font-weight="bold" font-size="8.00">BigAutoField</text>
<text text-anchor="start" x="1136" y="-329.6" font-family="Roboto" font-size="8.00"> &#160;&#160;&#160;&#160;&#160;</text>
<text text-anchor="start" x="1014" y="-316.6" font-family="Roboto" font-size="8.00"> &#160;&#160;&#160;&#160;&#160;</text>
<text text-anchor="start" x="1028" y="-316.6" font-family="Roboto" font-weight="bold" font-size="8.00">user</text>
<text text-anchor="start" x="1046" y="-316.6" font-family="Roboto" font-size="8.00"> &#160;&#160;&#160;&#160;&#160;</text>
<text text-anchor="start" x="1070" y="-316.6" font-family="Roboto" font-size="8.00"> &#160;&#160;&#160;&#160;&#160;</text>
<text text-anchor="start" x="1084" y="-316.6" font-family="Roboto" font-weight="bold" font-size="8.00">OneToOneField (id)</text>
<text text-anchor="start" x="1160" y="-316.6" font-family="Roboto" font-size="8.00"> &#160;&#160;&#160;&#160;&#160;</text>
<text text-anchor="start" x="1014" y="-303.6" font-family="Roboto" font-size="8.00"> &#160;&#160;&#160;&#160;&#160;</text>
<text text-anchor="start" x="1028" y="-303.6" font-family="Roboto" font-size="8.00" fill="#7b7b7b">avatar</text>
<text text-anchor="start" x="1052" y="-303.6" font-family="Roboto" font-size="8.00"> &#160;&#160;&#160;&#160;&#160;</text>
<text text-anchor="start" x="1070" y="-303.6" font-family="Roboto" font-size="8.00"> &#160;&#160;&#160;&#160;&#160;</text>
<text text-anchor="start" x="1084" y="-303.6" font-family="Roboto" font-size="8.00" fill="#7b7b7b">ImageField</text>
<text text-anchor="start" x="1128" y="-303.6" font-family="Roboto" font-size="8.00"> &#160;&#160;&#160;&#160;&#160;</text>
<text text-anchor="start" x="1014" y="-290.6" font-family="Roboto" font-size="8.00"> &#160;&#160;&#160;&#160;&#160;</text>
<text text-anchor="start" x="1028" y="-290.6" font-family="Roboto" font-size="8.00" fill="#7b7b7b">bio</text>
<text text-anchor="start" x="1041" y="-290.6" font-family="Roboto" font-size="8.00"> &#160;&#160;&#160;&#160;&#160;</text>
<text text-anchor="start" x="1070" y="-290.6" font-family="Roboto" font-size="8.00"> &#160;&#160;&#160;&#160;&#160;</text>
<text text-anchor="start" x="1084" y="-290.6" font-family="Roboto" font-size="8.00" fill="#7b7b7b">TextField</text>
<text text-anchor="start" x="1119" y="-290.6" font-family="Roboto" font-size="8.00"> &#160;&#160;&#160;&#160;&#160;</text>
<polygon fill="none" stroke="black" points="1011,-284.5 1011,-359.5 1177,-359.5 1177,-284.5 1011,-284.5"/>
</g>
<!-- django_contrib_auth_models_User -->
<g id="node8" class="node">
<title>django_contrib_auth_models_User</title>
<polygon fill="white" stroke="transparent" points="1209,-112 1209,-133 1255,-133 1255,-112 1209,-112"/>
<polygon fill="#1b563f" stroke="transparent" points="1209,-111.5 1209,-132.5 1255,-132.5 1255,-111.5 1209,-111.5"/>
<text text-anchor="start" x="1213" y="-119.9" font-family="Roboto" font-size="8.00"> &#160;</text>
<text text-anchor="start" x="1218" y="-119.9" font-family="Roboto" font-size="12.00" fill="white">User</text>
<text text-anchor="start" x="1246" y="-119.9" font-family="Roboto" font-size="8.00"> &#160;</text>
</g>
<!-- movies_models_Profile&#45;&gt;django_contrib_auth_models_User -->
<g id="edge1" class="edge">
<title>movies_models_Profile&#45;&gt;django_contrib_auth_models_User</title>
<path fill="none" stroke="black" d="M1149.87,-280.43C1166.91,-265.8 1184.43,-248.14 1197,-229 1215.32,-201.09 1224.87,-162.72 1229.13,-140.78"/>
<text text-anchor="middle" x="1206" y="-249.6" font-family="Roboto" font-size="8.00"> user (profile)</text>
</g>
<!-- movies_models_Movie -->
<g id="node2" class="node">
<title>movies_models_Movie</title>
<polygon fill="white" stroke="transparent" points="393,-20 393,-225 581,-225 581,-20 393,-20"/>
<polygon fill="#1b563f" stroke="transparent" points="394,-202.5 394,-223.5 580,-223.5 580,-202.5 394,-202.5"/>
<text text-anchor="start" x="451" y="-211.5" font-family="Roboto" font-size="8.00"> &#160;&#160;&#160;&#160;&#160;</text>
<text text-anchor="start" x="465" y="-211.5" font-family="Roboto" font-weight="bold" font-size="10.00" fill="white"> &#160;&#160;&#160;&#160;&#160;Movie &#160;&#160;&#160;&#160;&#160;</text>
<text text-anchor="start" x="396" y="-195.1" font-family="Roboto" font-size="8.00"> &#160;&#160;&#160;&#160;&#160;</text>
<text text-anchor="start" x="410" y="-195.1" font-family="Roboto" font-weight="bold" font-size="8.00">id</text>
<text text-anchor="start" x="418" y="-195.1" font-family="Roboto" font-size="8.00"> &#160;&#160;&#160;&#160;&#160;</text>
<text text-anchor="start" x="498" y="-195.1" font-family="Roboto" font-size="8.00"> &#160;&#160;&#160;&#160;&#160;</text>
<text text-anchor="start" x="512" y="-195.1" font-family="Roboto" font-weight="bold" font-size="8.00">BigAutoField</text>
<text text-anchor="start" x="564" y="-195.1" font-family="Roboto" font-size="8.00"> &#160;&#160;&#160;&#160;&#160;</text>
<text text-anchor="start" x="396" y="-182.1" font-family="Roboto" font-size="8.00"> &#160;&#160;&#160;&#160;&#160;</text>
<text text-anchor="start" x="410" y="-182.1" font-family="Roboto" font-size="8.00">adult</text>
<text text-anchor="start" x="431" y="-182.1" font-family="Roboto" font-size="8.00"> &#160;&#160;&#160;&#160;&#160;</text>
<text text-anchor="start" x="498" y="-182.1" font-family="Roboto" font-size="8.00"> &#160;&#160;&#160;&#160;&#160;</text>
<text text-anchor="start" x="512" y="-182.1" font-family="Roboto" font-size="8.00">BooleanField</text>
<text text-anchor="start" x="562" y="-182.1" font-family="Roboto" font-size="8.00"> &#160;&#160;&#160;&#160;&#160;</text>
<text text-anchor="start" x="396" y="-169.1" font-family="Roboto" font-size="8.00"> &#160;&#160;&#160;&#160;&#160;</text>
<text text-anchor="start" x="410" y="-169.1" font-family="Roboto" font-size="8.00" fill="#7b7b7b">backdrop_path</text>
<text text-anchor="start" x="468" y="-169.1" font-family="Roboto" font-size="8.00"> &#160;&#160;&#160;&#160;&#160;</text>
<text text-anchor="start" x="498" y="-169.1" font-family="Roboto" font-size="8.00"> &#160;&#160;&#160;&#160;&#160;</text>
<text text-anchor="start" x="512" y="-169.1" font-family="Roboto" font-size="8.00" fill="#7b7b7b">CharField</text>
<text text-anchor="start" x="549" y="-169.1" font-family="Roboto" font-size="8.00"> &#160;&#160;&#160;&#160;&#160;</text>
<text text-anchor="start" x="396" y="-156.1" font-family="Roboto" font-size="8.00"> &#160;&#160;&#160;&#160;&#160;</text>
<text text-anchor="start" x="410" y="-156.1" font-family="Roboto" font-size="8.00" fill="#7b7b7b">original_language</text>
<text text-anchor="start" x="480" y="-156.1" font-family="Roboto" font-size="8.00"> &#160;&#160;&#160;&#160;&#160;</text>
<text text-anchor="start" x="498" y="-156.1" font-family="Roboto" font-size="8.00"> &#160;&#160;&#160;&#160;&#160;</text>
<text text-anchor="start" x="512" y="-156.1" font-family="Roboto" font-size="8.00" fill="#7b7b7b">CharField</text>
<text text-anchor="start" x="549" y="-156.1" font-family="Roboto" font-size="8.00"> &#160;&#160;&#160;&#160;&#160;</text>
<text text-anchor="start" x="396" y="-143.1" font-family="Roboto" font-size="8.00"> &#160;&#160;&#160;&#160;&#160;</text>
<text text-anchor="start" x="410" y="-143.1" font-family="Roboto" font-size="8.00" fill="#7b7b7b">original_title</text>
<text text-anchor="start" x="459" y="-143.1" font-family="Roboto" font-size="8.00"> &#160;&#160;&#160;&#160;&#160;</text>
<text text-anchor="start" x="498" y="-143.1" font-family="Roboto" font-size="8.00"> &#160;&#160;&#160;&#160;&#160;</text>
<text text-anchor="start" x="512" y="-143.1" font-family="Roboto" font-size="8.00" fill="#7b7b7b">CharField</text>
<text text-anchor="start" x="549" y="-143.1" font-family="Roboto" font-size="8.00"> &#160;&#160;&#160;&#160;&#160;</text>
<text text-anchor="start" x="396" y="-130.1" font-family="Roboto" font-size="8.00"> &#160;&#160;&#160;&#160;&#160;</text>
<text text-anchor="start" x="410" y="-130.1" font-family="Roboto" font-size="8.00" fill="#7b7b7b">overview</text>
<text text-anchor="start" x="443" y="-130.1" font-family="Roboto" font-size="8.00"> &#160;&#160;&#160;&#160;&#160;</text>
<text text-anchor="start" x="498" y="-130.1" font-family="Roboto" font-size="8.00"> &#160;&#160;&#160;&#160;&#160;</text>
<text text-anchor="start" x="512" y="-130.1" font-family="Roboto" font-size="8.00" fill="#7b7b7b">TextField</text>
<text text-anchor="start" x="547" y="-130.1" font-family="Roboto" font-size="8.00"> &#160;&#160;&#160;&#160;&#160;</text>
<text text-anchor="start" x="396" y="-117.1" font-family="Roboto" font-size="8.00"> &#160;&#160;&#160;&#160;&#160;</text>
<text text-anchor="start" x="410" y="-117.1" font-family="Roboto" font-size="8.00" fill="#7b7b7b">popularity</text>
<text text-anchor="start" x="450" y="-117.1" font-family="Roboto" font-size="8.00"> &#160;&#160;&#160;&#160;&#160;</text>
<text text-anchor="start" x="498" y="-117.1" font-family="Roboto" font-size="8.00"> &#160;&#160;&#160;&#160;&#160;</text>
<text text-anchor="start" x="512" y="-117.1" font-family="Roboto" font-size="8.00" fill="#7b7b7b">FloatField</text>
<text text-anchor="start" x="550" y="-117.1" font-family="Roboto" font-size="8.00"> &#160;&#160;&#160;&#160;&#160;</text>
<text text-anchor="start" x="396" y="-104.1" font-family="Roboto" font-size="8.00"> &#160;&#160;&#160;&#160;&#160;</text>
<text text-anchor="start" x="410" y="-104.1" font-family="Roboto" font-size="8.00" fill="#7b7b7b">poster_path</text>
<text text-anchor="start" x="456" y="-104.1" font-family="Roboto" font-size="8.00"> &#160;&#160;&#160;&#160;&#160;</text>
<text text-anchor="start" x="498" y="-104.1" font-family="Roboto" font-size="8.00"> &#160;&#160;&#160;&#160;&#160;</text>
<text text-anchor="start" x="512" y="-104.1" font-family="Roboto" font-size="8.00" fill="#7b7b7b">CharField</text>
<text text-anchor="start" x="549" y="-104.1" font-family="Roboto" font-size="8.00"> &#160;&#160;&#160;&#160;&#160;</text>
<text text-anchor="start" x="396" y="-91.1" font-family="Roboto" font-size="8.00"> &#160;&#160;&#160;&#160;&#160;</text>
<text text-anchor="start" x="410" y="-91.1" font-family="Roboto" font-size="8.00" fill="#7b7b7b">release_date</text>
<text text-anchor="start" x="459" y="-91.1" font-family="Roboto" font-size="8.00"> &#160;&#160;&#160;&#160;&#160;</text>
<text text-anchor="start" x="498" y="-91.1" font-family="Roboto" font-size="8.00"> &#160;&#160;&#160;&#160;&#160;</text>
<text text-anchor="start" x="512" y="-91.1" font-family="Roboto" font-size="8.00" fill="#7b7b7b">DateField</text>
<text text-anchor="start" x="549" y="-91.1" font-family="Roboto" font-size="8.00"> &#160;&#160;&#160;&#160;&#160;</text>
<text text-anchor="start" x="396" y="-78.1" font-family="Roboto" font-size="8.00"> &#160;&#160;&#160;&#160;&#160;</text>
<text text-anchor="start" x="410" y="-78.1" font-family="Roboto" font-size="8.00">title</text>
<text text-anchor="start" x="426" y="-78.1" font-family="Roboto" font-size="8.00"> &#160;&#160;&#160;&#160;&#160;</text>
<text text-anchor="start" x="498" y="-78.1" font-family="Roboto" font-size="8.00"> &#160;&#160;&#160;&#160;&#160;</text>
<text text-anchor="start" x="512" y="-78.1" font-family="Roboto" font-size="8.00">CharField</text>
<text text-anchor="start" x="549" y="-78.1" font-family="Roboto" font-size="8.00"> &#160;&#160;&#160;&#160;&#160;</text>
<text text-anchor="start" x="396" y="-65.1" font-family="Roboto" font-size="8.00"> &#160;&#160;&#160;&#160;&#160;</text>
<text text-anchor="start" x="410" y="-65.1" font-family="Roboto" font-size="8.00">tmdb_id</text>
<text text-anchor="start" x="443" y="-65.1" font-family="Roboto" font-size="8.00"> &#160;&#160;&#160;&#160;&#160;</text>
<text text-anchor="start" x="498" y="-65.1" font-family="Roboto" font-size="8.00"> &#160;&#160;&#160;&#160;&#160;</text>
<text text-anchor="start" x="512" y="-65.1" font-family="Roboto" font-size="8.00">IntegerField</text>
<text text-anchor="start" x="560" y="-65.1" font-family="Roboto" font-size="8.00"> &#160;&#160;&#160;&#160;&#160;</text>
<text text-anchor="start" x="396" y="-52.1" font-family="Roboto" font-size="8.00"> &#160;&#160;&#160;&#160;&#160;</text>
<text text-anchor="start" x="410" y="-52.1" font-family="Roboto" font-size="8.00">video</text>
<text text-anchor="start" x="431" y="-52.1" font-family="Roboto" font-size="8.00"> &#160;&#160;&#160;&#160;&#160;</text>
<text text-anchor="start" x="498" y="-52.1" font-family="Roboto" font-size="8.00"> &#160;&#160;&#160;&#160;&#160;</text>
<text text-anchor="start" x="512" y="-52.1" font-family="Roboto" font-size="8.00">BooleanField</text>
<text text-anchor="start" x="562" y="-52.1" font-family="Roboto" font-size="8.00"> &#160;&#160;&#160;&#160;&#160;</text>
<text text-anchor="start" x="396" y="-39.1" font-family="Roboto" font-size="8.00"> &#160;&#160;&#160;&#160;&#160;</text>
<text text-anchor="start" x="410" y="-39.1" font-family="Roboto" font-size="8.00" fill="#7b7b7b">vote_average</text>
<text text-anchor="start" x="460" y="-39.1" font-family="Roboto" font-size="8.00"> &#160;&#160;&#160;&#160;&#160;</text>
<text text-anchor="start" x="498" y="-39.1" font-family="Roboto" font-size="8.00"> &#160;&#160;&#160;&#160;&#160;</text>
<text text-anchor="start" x="512" y="-39.1" font-family="Roboto" font-size="8.00" fill="#7b7b7b">FloatField</text>
<text text-anchor="start" x="550" y="-39.1" font-family="Roboto" font-size="8.00"> &#160;&#160;&#160;&#160;&#160;</text>
<text text-anchor="start" x="396" y="-26.1" font-family="Roboto" font-size="8.00"> &#160;&#160;&#160;&#160;&#160;</text>
<text text-anchor="start" x="410" y="-26.1" font-family="Roboto" font-size="8.00" fill="#7b7b7b">vote_count</text>
<text text-anchor="start" x="452" y="-26.1" font-family="Roboto" font-size="8.00"> &#160;&#160;&#160;&#160;&#160;</text>
<text text-anchor="start" x="498" y="-26.1" font-family="Roboto" font-size="8.00"> &#160;&#160;&#160;&#160;&#160;</text>
<text text-anchor="start" x="512" y="-26.1" font-family="Roboto" font-size="8.00" fill="#7b7b7b">IntegerField</text>
<text text-anchor="start" x="560" y="-26.1" font-family="Roboto" font-size="8.00"> &#160;&#160;&#160;&#160;&#160;</text>
<polygon fill="none" stroke="black" points="393,-20 393,-225 581,-225 581,-20 393,-20"/>
</g>
<!-- movies_models_FavoriteMovie -->
<g id="node3" class="node">
<title>movies_models_FavoriteMovie</title>
<polygon fill="white" stroke="transparent" points="209,-284.5 209,-359.5 373,-359.5 373,-284.5 209,-284.5"/>
<polygon fill="#1b563f" stroke="transparent" points="210,-337 210,-358 372,-358 372,-337 210,-337"/>
<text text-anchor="start" x="234" y="-346" font-family="Roboto" font-size="8.00"> &#160;&#160;&#160;&#160;&#160;</text>
<text text-anchor="start" x="248" y="-346" font-family="Roboto" font-weight="bold" font-size="10.00" fill="white"> &#160;&#160;&#160;&#160;&#160;FavoriteMovie &#160;&#160;&#160;&#160;&#160;</text>
<text text-anchor="start" x="212" y="-329.6" font-family="Roboto" font-size="8.00"> &#160;&#160;&#160;&#160;&#160;</text>
<text text-anchor="start" x="226" y="-329.6" font-family="Roboto" font-weight="bold" font-size="8.00">id</text>
<text text-anchor="start" x="234" y="-329.6" font-family="Roboto" font-size="8.00"> &#160;&#160;&#160;&#160;&#160;</text>
<text text-anchor="start" x="281" y="-329.6" font-family="Roboto" font-size="8.00"> &#160;&#160;&#160;&#160;&#160;</text>
<text text-anchor="start" x="295" y="-329.6" font-family="Roboto" font-weight="bold" font-size="8.00">BigAutoField</text>
<text text-anchor="start" x="347" y="-329.6" font-family="Roboto" font-size="8.00"> &#160;&#160;&#160;&#160;&#160;</text>
<text text-anchor="start" x="212" y="-316.6" font-family="Roboto" font-size="8.00"> &#160;&#160;&#160;&#160;&#160;</text>
<text text-anchor="start" x="226" y="-316.6" font-family="Roboto" font-weight="bold" font-size="8.00">movie</text>
<text text-anchor="start" x="250" y="-316.6" font-family="Roboto" font-size="8.00"> &#160;&#160;&#160;&#160;&#160;</text>
<text text-anchor="start" x="281" y="-316.6" font-family="Roboto" font-size="8.00"> &#160;&#160;&#160;&#160;&#160;</text>
<text text-anchor="start" x="295" y="-316.6" font-family="Roboto" font-weight="bold" font-size="8.00">ForeignKey (id)</text>
<text text-anchor="start" x="356" y="-316.6" font-family="Roboto" font-size="8.00"> &#160;&#160;&#160;&#160;&#160;</text>
<text text-anchor="start" x="212" y="-303.6" font-family="Roboto" font-size="8.00"> &#160;&#160;&#160;&#160;&#160;</text>
<text text-anchor="start" x="226" y="-303.6" font-family="Roboto" font-weight="bold" font-size="8.00">user</text>
<text text-anchor="start" x="244" y="-303.6" font-family="Roboto" font-size="8.00"> &#160;&#160;&#160;&#160;&#160;</text>
<text text-anchor="start" x="281" y="-303.6" font-family="Roboto" font-size="8.00"> &#160;&#160;&#160;&#160;&#160;</text>
<text text-anchor="start" x="295" y="-303.6" font-family="Roboto" font-weight="bold" font-size="8.00">ForeignKey (id)</text>
<text text-anchor="start" x="356" y="-303.6" font-family="Roboto" font-size="8.00"> &#160;&#160;&#160;&#160;&#160;</text>
<text text-anchor="start" x="212" y="-290.6" font-family="Roboto" font-size="8.00"> &#160;&#160;&#160;&#160;&#160;</text>
<text text-anchor="start" x="226" y="-290.6" font-family="Roboto" font-size="8.00" fill="#7b7b7b">added_at</text>
<text text-anchor="start" x="263" y="-290.6" font-family="Roboto" font-size="8.00"> &#160;&#160;&#160;&#160;&#160;</text>
<text text-anchor="start" x="281" y="-290.6" font-family="Roboto" font-size="8.00"> &#160;&#160;&#160;&#160;&#160;</text>
<text text-anchor="start" x="295" y="-290.6" font-family="Roboto" font-size="8.00" fill="#7b7b7b">DateTimeField</text>
<text text-anchor="start" x="351" y="-290.6" font-family="Roboto" font-size="8.00"> &#160;&#160;&#160;&#160;&#160;</text>
<polygon fill="none" stroke="black" points="209,-284.5 209,-359.5 373,-359.5 373,-284.5 209,-284.5"/>
</g>
<!-- movies_models_FavoriteMovie&#45;&gt;movies_models_Movie -->
<g id="edge3" class="edge">
<title>movies_models_FavoriteMovie&#45;&gt;movies_models_Movie</title>
<path fill="none" stroke="black" d="M337.25,-274.4C351.7,-259.83 368.26,-243.15 384.97,-226.31"/>
<ellipse fill="black" stroke="black" cx="334.43" cy="-277.24" rx="4" ry="4"/>
<text text-anchor="middle" x="401.5" y="-249.6" font-family="Roboto" font-size="8.00"> movie (favoritemovie)</text>
</g>
<!-- movies_models_FavoriteMovie&#45;&gt;django_contrib_auth_models_User -->
<g id="edge2" class="edge">
<title>movies_models_FavoriteMovie&#45;&gt;django_contrib_auth_models_User</title>
<path fill="none" stroke="black" d="M376.95,-277.78C381.31,-276.35 385.67,-275.08 390,-274 564.41,-230.6 618.46,-294.6 794,-256 804.32,-253.73 805.69,-249.28 816,-247 857.38,-237.84 1163.23,-254.61 1197,-229 1224.52,-208.13 1230.67,-164.86 1231.88,-140.73"/>
<ellipse fill="black" stroke="black" cx="372.9" cy="-279.18" rx="4" ry="4"/>
<text text-anchor="middle" x="854.5" y="-249.6" font-family="Roboto" font-size="8.00"> user (favoritemovie)</text>
</g>
<!-- movies_models_Ratings -->
<g id="node4" class="node">
<title>movies_models_Ratings</title>
<polygon fill="white" stroke="transparent" points="407.5,-278 407.5,-366 566.5,-366 566.5,-278 407.5,-278"/>
<polygon fill="#1b563f" stroke="transparent" points="409,-344 409,-365 566,-365 566,-344 409,-344"/>
<text text-anchor="start" x="447.5" y="-353" font-family="Roboto" font-size="8.00"> &#160;&#160;&#160;&#160;&#160;</text>
<text text-anchor="start" x="461.5" y="-353" font-family="Roboto" font-weight="bold" font-size="10.00" fill="white"> &#160;&#160;&#160;&#160;&#160;Ratings &#160;&#160;&#160;&#160;&#160;</text>
<text text-anchor="start" x="411" y="-336.6" font-family="Roboto" font-size="8.00"> &#160;&#160;&#160;&#160;&#160;</text>
<text text-anchor="start" x="425" y="-336.6" font-family="Roboto" font-weight="bold" font-size="8.00">id</text>
<text text-anchor="start" x="433" y="-336.6" font-family="Roboto" font-size="8.00"> &#160;&#160;&#160;&#160;&#160;</text>
<text text-anchor="start" x="475" y="-336.6" font-family="Roboto" font-size="8.00"> &#160;&#160;&#160;&#160;&#160;</text>
<text text-anchor="start" x="489" y="-336.6" font-family="Roboto" font-weight="bold" font-size="8.00">BigAutoField</text>
<text text-anchor="start" x="541" y="-336.6" font-family="Roboto" font-size="8.00"> &#160;&#160;&#160;&#160;&#160;</text>
<text text-anchor="start" x="411" y="-323.6" font-family="Roboto" font-size="8.00"> &#160;&#160;&#160;&#160;&#160;</text>
<text text-anchor="start" x="425" y="-323.6" font-family="Roboto" font-weight="bold" font-size="8.00">movie</text>
<text text-anchor="start" x="449" y="-323.6" font-family="Roboto" font-size="8.00"> &#160;&#160;&#160;&#160;&#160;</text>
<text text-anchor="start" x="475" y="-323.6" font-family="Roboto" font-size="8.00"> &#160;&#160;&#160;&#160;&#160;</text>
<text text-anchor="start" x="489" y="-323.6" font-family="Roboto" font-weight="bold" font-size="8.00">ForeignKey (id)</text>
<text text-anchor="start" x="550" y="-323.6" font-family="Roboto" font-size="8.00"> &#160;&#160;&#160;&#160;&#160;</text>
<text text-anchor="start" x="411" y="-310.6" font-family="Roboto" font-size="8.00"> &#160;&#160;&#160;&#160;&#160;</text>
<text text-anchor="start" x="425" y="-310.6" font-family="Roboto" font-weight="bold" font-size="8.00">user</text>
<text text-anchor="start" x="443" y="-310.6" font-family="Roboto" font-size="8.00"> &#160;&#160;&#160;&#160;&#160;</text>
<text text-anchor="start" x="475" y="-310.6" font-family="Roboto" font-size="8.00"> &#160;&#160;&#160;&#160;&#160;</text>
<text text-anchor="start" x="489" y="-310.6" font-family="Roboto" font-weight="bold" font-size="8.00">ForeignKey (id)</text>
<text text-anchor="start" x="550" y="-310.6" font-family="Roboto" font-size="8.00"> &#160;&#160;&#160;&#160;&#160;</text>
<text text-anchor="start" x="411" y="-297.6" font-family="Roboto" font-size="8.00"> &#160;&#160;&#160;&#160;&#160;</text>
<text text-anchor="start" x="425" y="-297.6" font-family="Roboto" font-size="8.00" fill="#7b7b7b">rated_at</text>
<text text-anchor="start" x="457" y="-297.6" font-family="Roboto" font-size="8.00"> &#160;&#160;&#160;&#160;&#160;</text>
<text text-anchor="start" x="475" y="-297.6" font-family="Roboto" font-size="8.00"> &#160;&#160;&#160;&#160;&#160;</text>
<text text-anchor="start" x="489" y="-297.6" font-family="Roboto" font-size="8.00" fill="#7b7b7b">DateTimeField</text>
<text text-anchor="start" x="545" y="-297.6" font-family="Roboto" font-size="8.00"> &#160;&#160;&#160;&#160;&#160;</text>
<text text-anchor="start" x="411" y="-284.6" font-family="Roboto" font-size="8.00"> &#160;&#160;&#160;&#160;&#160;</text>
<text text-anchor="start" x="425" y="-284.6" font-family="Roboto" font-size="8.00">score</text>
<text text-anchor="start" x="445" y="-284.6" font-family="Roboto" font-size="8.00"> &#160;&#160;&#160;&#160;&#160;</text>
<text text-anchor="start" x="475" y="-284.6" font-family="Roboto" font-size="8.00"> &#160;&#160;&#160;&#160;&#160;</text>
<text text-anchor="start" x="489" y="-284.6" font-family="Roboto" font-size="8.00">IntegerField</text>
<text text-anchor="start" x="537" y="-284.6" font-family="Roboto" font-size="8.00"> &#160;&#160;&#160;&#160;&#160;</text>
<polygon fill="none" stroke="black" points="407.5,-278 407.5,-366 566.5,-366 566.5,-278 407.5,-278"/>
</g>
<!-- movies_models_Ratings&#45;&gt;movies_models_Movie -->
<g id="edge5" class="edge">
<title>movies_models_Ratings&#45;&gt;movies_models_Movie</title>
<path fill="none" stroke="black" d="M487,-265.79C487,-254.35 487,-241.92 487,-229.34"/>
<ellipse fill="black" stroke="black" cx="487" cy="-269.94" rx="4" ry="4"/>
<text text-anchor="middle" x="516.5" y="-249.6" font-family="Roboto" font-size="8.00"> movie (ratings)</text>
</g>
<!-- movies_models_Ratings&#45;&gt;django_contrib_auth_models_User -->
<g id="edge4" class="edge">
<title>movies_models_Ratings&#45;&gt;django_contrib_auth_models_User</title>
<path fill="none" stroke="black" d="M582.48,-274.14C582.65,-274.09 582.83,-274.05 583,-274 718.22,-238.57 760.93,-288.01 897,-256 906.88,-253.67 908.12,-249.36 918,-247 948.21,-239.78 1172.41,-247.98 1197,-229 1224.34,-207.89 1230.56,-164.72 1231.83,-140.66"/>
<ellipse fill="black" stroke="black" cx="578.46" cy="-275.31" rx="4" ry="4"/>
<text text-anchor="middle" x="944.5" y="-249.6" font-family="Roboto" font-size="8.00"> user (ratings)</text>
</g>
<!-- movies_models_Comment -->
<g id="node5" class="node">
<title>movies_models_Comment</title>
<polygon fill="white" stroke="transparent" points="600.5,-278 600.5,-366 777.5,-366 777.5,-278 600.5,-278"/>
<polygon fill="#1b563f" stroke="transparent" points="602,-344 602,-365 777,-365 777,-344 602,-344"/>
<text text-anchor="start" x="644.5" y="-353" font-family="Roboto" font-size="8.00"> &#160;&#160;&#160;&#160;&#160;</text>
<text text-anchor="start" x="658.5" y="-353" font-family="Roboto" font-weight="bold" font-size="10.00" fill="white"> &#160;&#160;&#160;&#160;&#160;Comment &#160;&#160;&#160;&#160;&#160;</text>
<text text-anchor="start" x="604" y="-336.6" font-family="Roboto" font-size="8.00"> &#160;&#160;&#160;&#160;&#160;</text>
<text text-anchor="start" x="618" y="-336.6" font-family="Roboto" font-weight="bold" font-size="8.00">id</text>
<text text-anchor="start" x="626" y="-336.6" font-family="Roboto" font-size="8.00"> &#160;&#160;&#160;&#160;&#160;</text>
<text text-anchor="start" x="686" y="-336.6" font-family="Roboto" font-size="8.00"> &#160;&#160;&#160;&#160;&#160;</text>
<text text-anchor="start" x="700" y="-336.6" font-family="Roboto" font-weight="bold" font-size="8.00">BigAutoField</text>
<text text-anchor="start" x="752" y="-336.6" font-family="Roboto" font-size="8.00"> &#160;&#160;&#160;&#160;&#160;</text>
<text text-anchor="start" x="604" y="-323.6" font-family="Roboto" font-size="8.00"> &#160;&#160;&#160;&#160;&#160;</text>
<text text-anchor="start" x="618" y="-323.6" font-family="Roboto" font-weight="bold" font-size="8.00">movie</text>
<text text-anchor="start" x="642" y="-323.6" font-family="Roboto" font-size="8.00"> &#160;&#160;&#160;&#160;&#160;</text>
<text text-anchor="start" x="686" y="-323.6" font-family="Roboto" font-size="8.00"> &#160;&#160;&#160;&#160;&#160;</text>
<text text-anchor="start" x="700" y="-323.6" font-family="Roboto" font-weight="bold" font-size="8.00">ForeignKey (id)</text>
<text text-anchor="start" x="761" y="-323.6" font-family="Roboto" font-size="8.00"> &#160;&#160;&#160;&#160;&#160;</text>
<text text-anchor="start" x="604" y="-310.6" font-family="Roboto" font-size="8.00"> &#160;&#160;&#160;&#160;&#160;</text>
<text text-anchor="start" x="618" y="-310.6" font-family="Roboto" font-weight="bold" font-size="8.00">user</text>
<text text-anchor="start" x="636" y="-310.6" font-family="Roboto" font-size="8.00"> &#160;&#160;&#160;&#160;&#160;</text>
<text text-anchor="start" x="686" y="-310.6" font-family="Roboto" font-size="8.00"> &#160;&#160;&#160;&#160;&#160;</text>
<text text-anchor="start" x="700" y="-310.6" font-family="Roboto" font-weight="bold" font-size="8.00">ForeignKey (id)</text>
<text text-anchor="start" x="761" y="-310.6" font-family="Roboto" font-size="8.00"> &#160;&#160;&#160;&#160;&#160;</text>
<text text-anchor="start" x="604" y="-297.6" font-family="Roboto" font-size="8.00"> &#160;&#160;&#160;&#160;&#160;</text>
<text text-anchor="start" x="618" y="-297.6" font-family="Roboto" font-size="8.00" fill="#7b7b7b">comented_at</text>
<text text-anchor="start" x="668" y="-297.6" font-family="Roboto" font-size="8.00"> &#160;&#160;&#160;&#160;&#160;</text>
<text text-anchor="start" x="686" y="-297.6" font-family="Roboto" font-size="8.00"> &#160;&#160;&#160;&#160;&#160;</text>
<text text-anchor="start" x="700" y="-297.6" font-family="Roboto" font-size="8.00" fill="#7b7b7b">DateTimeField</text>
<text text-anchor="start" x="756" y="-297.6" font-family="Roboto" font-size="8.00"> &#160;&#160;&#160;&#160;&#160;</text>
<text text-anchor="start" x="604" y="-284.6" font-family="Roboto" font-size="8.00"> &#160;&#160;&#160;&#160;&#160;</text>
<text text-anchor="start" x="618" y="-284.6" font-family="Roboto" font-size="8.00">content</text>
<text text-anchor="start" x="648" y="-284.6" font-family="Roboto" font-size="8.00"> &#160;&#160;&#160;&#160;&#160;</text>
<text text-anchor="start" x="686" y="-284.6" font-family="Roboto" font-size="8.00"> &#160;&#160;&#160;&#160;&#160;</text>
<text text-anchor="start" x="700" y="-284.6" font-family="Roboto" font-size="8.00">TextField</text>
<text text-anchor="start" x="735" y="-284.6" font-family="Roboto" font-size="8.00"> &#160;&#160;&#160;&#160;&#160;</text>
<polygon fill="none" stroke="black" points="600.5,-278 600.5,-366 777.5,-366 777.5,-278 600.5,-278"/>
</g>
<!-- movies_models_Comment&#45;&gt;movies_models_Movie -->
<g id="edge7" class="edge">
<title>movies_models_Comment&#45;&gt;movies_models_Movie</title>
<path fill="none" stroke="black" d="M634.9,-268.11C620.74,-254.26 604.99,-238.86 589.2,-223.42"/>
<ellipse fill="black" stroke="black" cx="638.01" cy="-271.15" rx="4" ry="4"/>
<text text-anchor="middle" x="652" y="-249.6" font-family="Roboto" font-size="8.00"> movie (comment)</text>
</g>
<!-- movies_models_Comment&#45;&gt;django_contrib_auth_models_User -->
<g id="edge6" class="edge">
<title>movies_models_Comment&#45;&gt;django_contrib_auth_models_User</title>
<path fill="none" stroke="black" d="M793.54,-274.39C794.03,-274.26 794.51,-274.13 795,-274 872.73,-253.45 895.54,-268.25 975,-256 994.3,-253.02 998.7,-249.98 1018,-247 1057.51,-240.9 1165.8,-253.99 1197,-229 1223.96,-207.41 1230.33,-164.43 1231.72,-140.53"/>
<ellipse fill="black" stroke="black" cx="789.44" cy="-275.58" rx="4" ry="4"/>
<text text-anchor="middle" x="1049" y="-249.6" font-family="Roboto" font-size="8.00"> user (comment)</text>
</g>
<!-- movies_models_Share -->
<g id="node6" class="node">
<title>movies_models_Share</title>
<polygon fill="white" stroke="transparent" points="811.5,-278 811.5,-366 976.5,-366 976.5,-278 811.5,-278"/>
<polygon fill="#1b563f" stroke="transparent" points="813,-344 813,-365 976,-365 976,-344 813,-344"/>
<text text-anchor="start" x="859.5" y="-353" font-family="Roboto" font-size="8.00"> &#160;&#160;&#160;&#160;&#160;</text>
<text text-anchor="start" x="873.5" y="-353" font-family="Roboto" font-weight="bold" font-size="10.00" fill="white"> &#160;&#160;&#160;&#160;&#160;Share &#160;&#160;&#160;&#160;&#160;</text>
<text text-anchor="start" x="815" y="-336.6" font-family="Roboto" font-size="8.00"> &#160;&#160;&#160;&#160;&#160;</text>
<text text-anchor="start" x="829" y="-336.6" font-family="Roboto" font-weight="bold" font-size="8.00">id</text>
<text text-anchor="start" x="837" y="-336.6" font-family="Roboto" font-size="8.00"> &#160;&#160;&#160;&#160;&#160;</text>
<text text-anchor="start" x="885" y="-336.6" font-family="Roboto" font-size="8.00"> &#160;&#160;&#160;&#160;&#160;</text>
<text text-anchor="start" x="899" y="-336.6" font-family="Roboto" font-weight="bold" font-size="8.00">BigAutoField</text>
<text text-anchor="start" x="951" y="-336.6" font-family="Roboto" font-size="8.00"> &#160;&#160;&#160;&#160;&#160;</text>
<text text-anchor="start" x="815" y="-323.6" font-family="Roboto" font-size="8.00"> &#160;&#160;&#160;&#160;&#160;</text>
<text text-anchor="start" x="829" y="-323.6" font-family="Roboto" font-weight="bold" font-size="8.00">movie</text>
<text text-anchor="start" x="853" y="-323.6" font-family="Roboto" font-size="8.00"> &#160;&#160;&#160;&#160;&#160;</text>
<text text-anchor="start" x="885" y="-323.6" font-family="Roboto" font-size="8.00"> &#160;&#160;&#160;&#160;&#160;</text>
<text text-anchor="start" x="899" y="-323.6" font-family="Roboto" font-weight="bold" font-size="8.00">ForeignKey (id)</text>
<text text-anchor="start" x="960" y="-323.6" font-family="Roboto" font-size="8.00"> &#160;&#160;&#160;&#160;&#160;</text>
<text text-anchor="start" x="815" y="-310.6" font-family="Roboto" font-size="8.00"> &#160;&#160;&#160;&#160;&#160;</text>
<text text-anchor="start" x="829" y="-310.6" font-family="Roboto" font-weight="bold" font-size="8.00">user</text>
<text text-anchor="start" x="847" y="-310.6" font-family="Roboto" font-size="8.00"> &#160;&#160;&#160;&#160;&#160;</text>
<text text-anchor="start" x="885" y="-310.6" font-family="Roboto" font-size="8.00"> &#160;&#160;&#160;&#160;&#160;</text>
<text text-anchor="start" x="899" y="-310.6" font-family="Roboto" font-weight="bold" font-size="8.00">ForeignKey (id)</text>
<text text-anchor="start" x="960" y="-310.6" font-family="Roboto" font-size="8.00"> &#160;&#160;&#160;&#160;&#160;</text>
<text text-anchor="start" x="815" y="-297.6" font-family="Roboto" font-size="8.00"> &#160;&#160;&#160;&#160;&#160;</text>
<text text-anchor="start" x="829" y="-297.6" font-family="Roboto" font-size="8.00">plateform</text>
<text text-anchor="start" x="867" y="-297.6" font-family="Roboto" font-size="8.00"> &#160;&#160;&#160;&#160;&#160;</text>
<text text-anchor="start" x="885" y="-297.6" font-family="Roboto" font-size="8.00"> &#160;&#160;&#160;&#160;&#160;</text>
<text text-anchor="start" x="899" y="-297.6" font-family="Roboto" font-size="8.00">CharField</text>
<text text-anchor="start" x="936" y="-297.6" font-family="Roboto" font-size="8.00"> &#160;&#160;&#160;&#160;&#160;</text>
<text text-anchor="start" x="815" y="-284.6" font-family="Roboto" font-size="8.00"> &#160;&#160;&#160;&#160;&#160;</text>
<text text-anchor="start" x="829" y="-284.6" font-family="Roboto" font-size="8.00" fill="#7b7b7b">shared_at</text>
<text text-anchor="start" x="867" y="-284.6" font-family="Roboto" font-size="8.00"> &#160;&#160;&#160;&#160;&#160;</text>
<text text-anchor="start" x="885" y="-284.6" font-family="Roboto" font-size="8.00"> &#160;&#160;&#160;&#160;&#160;</text>
<text text-anchor="start" x="899" y="-284.6" font-family="Roboto" font-size="8.00" fill="#7b7b7b">DateTimeField</text>
<text text-anchor="start" x="955" y="-284.6" font-family="Roboto" font-size="8.00"> &#160;&#160;&#160;&#160;&#160;</text>
<polygon fill="none" stroke="black" points="811.5,-278 811.5,-366 976.5,-366 976.5,-278 811.5,-278"/>
</g>
<!-- movies_models_Share&#45;&gt;movies_models_Movie -->
<g id="edge9" class="edge">
<title>movies_models_Share&#45;&gt;movies_models_Movie</title>
<path fill="none" stroke="black" d="M795.77,-274.31C795.51,-274.21 795.26,-274.1 795,-274 771.53,-264.56 764.29,-265.88 741,-256 689.72,-234.24 634.69,-206.16 589.01,-181.45"/>
<ellipse fill="black" stroke="black" cx="799.59" cy="-275.89" rx="4" ry="4"/>
<text text-anchor="middle" x="767.5" y="-249.6" font-family="Roboto" font-size="8.00"> movie (share)</text>
</g>
<!-- movies_models_Share&#45;&gt;django_contrib_auth_models_User -->
<g id="edge8" class="edge">
<title>movies_models_Share&#45;&gt;django_contrib_auth_models_User</title>
<path fill="none" stroke="black" d="M992.26,-274.6C992.84,-274.4 993.42,-274.2 994,-274 999.47,-272.14 1192.71,-232.87 1197,-229 1222.5,-205.98 1229.46,-163.97 1231.33,-140.5"/>
<ellipse fill="black" stroke="black" cx="988.43" cy="-275.99" rx="4" ry="4"/>
<text text-anchor="middle" x="1142.5" y="-249.6" font-family="Roboto" font-size="8.00"> user (share)</text>
</g>
<!-- movies_models_Genre -->
<g id="node7" class="node">
<title>movies_models_Genre</title>
<polygon fill="white" stroke="transparent" points="23.5,-291 23.5,-353 174.5,-353 174.5,-291 23.5,-291"/>
<polygon fill="#1b563f" stroke="transparent" points="25,-331 25,-352 174,-352 174,-331 25,-331"/>
<text text-anchor="start" x="63.5" y="-340" font-family="Roboto" font-size="8.00"> &#160;&#160;&#160;&#160;&#160;</text>
<text text-anchor="start" x="77.5" y="-340" font-family="Roboto" font-weight="bold" font-size="10.00" fill="white"> &#160;&#160;&#160;&#160;&#160;Genre &#160;&#160;&#160;&#160;&#160;</text>
<text text-anchor="start" x="27" y="-323.6" font-family="Roboto" font-size="8.00"> &#160;&#160;&#160;&#160;&#160;</text>
<text text-anchor="start" x="41" y="-323.6" font-family="Roboto" font-weight="bold" font-size="8.00">id</text>
<text text-anchor="start" x="49" y="-323.6" font-family="Roboto" font-size="8.00"> &#160;&#160;&#160;&#160;&#160;</text>
<text text-anchor="start" x="92" y="-323.6" font-family="Roboto" font-size="8.00"> &#160;&#160;&#160;&#160;&#160;</text>
<text text-anchor="start" x="106" y="-323.6" font-family="Roboto" font-weight="bold" font-size="8.00">BigAutoField</text>
<text text-anchor="start" x="158" y="-323.6" font-family="Roboto" font-size="8.00"> &#160;&#160;&#160;&#160;&#160;</text>
<text text-anchor="start" x="27" y="-310.6" font-family="Roboto" font-size="8.00"> &#160;&#160;&#160;&#160;&#160;</text>
<text text-anchor="start" x="41" y="-310.6" font-family="Roboto" font-size="8.00">name</text>
<text text-anchor="start" x="63" y="-310.6" font-family="Roboto" font-size="8.00"> &#160;&#160;&#160;&#160;&#160;</text>
<text text-anchor="start" x="92" y="-310.6" font-family="Roboto" font-size="8.00"> &#160;&#160;&#160;&#160;&#160;</text>
<text text-anchor="start" x="106" y="-310.6" font-family="Roboto" font-size="8.00">CharField</text>
<text text-anchor="start" x="143" y="-310.6" font-family="Roboto" font-size="8.00"> &#160;&#160;&#160;&#160;&#160;</text>
<text text-anchor="start" x="27" y="-297.6" font-family="Roboto" font-size="8.00"> &#160;&#160;&#160;&#160;&#160;</text>
<text text-anchor="start" x="41" y="-297.6" font-family="Roboto" font-size="8.00">tmbd_id</text>
<text text-anchor="start" x="74" y="-297.6" font-family="Roboto" font-size="8.00"> &#160;&#160;&#160;&#160;&#160;</text>
<text text-anchor="start" x="92" y="-297.6" font-family="Roboto" font-size="8.00"> &#160;&#160;&#160;&#160;&#160;</text>
<text text-anchor="start" x="106" y="-297.6" font-family="Roboto" font-size="8.00">IntegerField</text>
<text text-anchor="start" x="154" y="-297.6" font-family="Roboto" font-size="8.00"> &#160;&#160;&#160;&#160;&#160;</text>
<polygon fill="none" stroke="black" points="23.5,-291 23.5,-353 174.5,-353 174.5,-291 23.5,-291"/>
</g>
<!-- movies_models_Genre&#45;&gt;movies_models_Movie -->
<g id="edge10" class="edge">
<title>movies_models_Genre&#45;&gt;movies_models_Movie</title>
<path fill="none" stroke="black" d="M173.34,-283.16C231.16,-253.73 312.27,-212.44 377.51,-179.23"/>
<ellipse fill="black" stroke="black" cx="169.71" cy="-285.01" rx="4" ry="4"/>
<ellipse fill="black" stroke="black" cx="381.42" cy="-177.24" rx="4" ry="4"/>
<text text-anchor="middle" x="267" y="-249.6" font-family="Roboto" font-size="8.00"> movies (genres)</text>
</g>
</g>
</svg>
